Coordinates
version=1
nRows=8
nColumns=40
inDegrees=yes

Units are S.I. units (second, meters, Newtons, ...)
Angles are in degrees.

endheader
time	pelvis_tilt	pelvis_list	pelvis_rotation	pelvis_tx	pelvis_ty	pelvis_tz	hip_flexion_r	hip_adduction_r	hip_rotation_r	knee_angle_r	knee_angle_r_beta	ankle_angle_r	subtalar_angle_r	mtp_angle_r	hip_flexion_l	hip_adduction_l	hip_rotation_l	knee_angle_l	knee_angle_l_beta	ankle_angle_l	subtalar_angle_l	mtp_angle_l	lumbar_extension	lumbar_bending	lumbar_rotation	arm_flex_r	arm_add_r	arm_rot_r	elbow_flex_r	pro_sup_r	wrist_flex_r	wrist_dev_r	arm_flex_l	arm_add_l	arm_rot_l	elbow_flex_l	pro_sup_l	wrist_flex_l	wrist_dev_l
      8.77500000	     -7.33504151	     -3.57460336	      8.85087445	      0.95020012	      0.92204030	      0.54195731	      7.71240242	      4.28446574	    -16.78030362	     15.73105123	     15.73105123	     17.28641117	     -3.59558132	     -0.18459295	     30.58121894	     -6.91675990	      3.15977100	     17.14954718	     17.14954718	      6.65089270	     -3.37982669	      5.65585262	     -8.40198004	      3.40900985	      2.37658424	     48.47849984	    -18.17500950	     -6.18001314	     72.12044507	     44.93450293	      0.00000000	      0.00000000	    -16.27842585	     -9.69855125	     22.34877360	     34.86129065	     42.56562293	      0.00000000	      0.00000000
      8.79407143	     -7.49491063	     -3.67497260	      9.04132361	      0.94954017	      0.92170259	      0.53962667	      7.04060041	      4.38858785	    -16.98541473	     14.81653897	     14.81653897	     17.31026361	     -3.11859428	     -0.17599118	     30.30592830	     -6.72222880	      2.73203802	     15.84905172	     15.84905172	      6.32855681	     -2.05742464	      5.41029638	     -8.21355121	      3.32568312	      2.31247229	     50.01301275	    -18.09648908	     -6.17923959	     73.31580974	     44.90918887	      0.00000000	      0.00000000	    -16.37687886	     -9.73002735	     22.53400521	     34.77910455	     42.58667039	      0.00000000	      0.00000000
      8.81314286	     -7.60089916	     -3.83714826	      9.17489382	      0.94911368	      0.92114631	      0.53726873	      6.38196465	      4.54091710	    -17.24821510	     14.05685068	     14.05685068	     17.41610390	     -2.59048689	     -0.21889514	     30.09391082	     -6.68117655	      2.13096752	     15.10631718	     15.10631718	      5.82531256	     -0.95001014	      4.74124622	     -8.11580430	      3.30060385	      2.28437243	     51.27773744	    -17.97248394	     -6.15694149	     74.55331845	     44.88118829	      0.00000000	      0.00000000	    -16.41128849	     -9.77756734	     22.68392606	     34.61949925	     42.61438815	      0.00000000	      0.00000000
      8.83221429	     -7.66059754	     -4.05203311	      9.25058143	      0.94905447	      0.92033053	      0.53492329	      5.75434700	      4.72968957	    -17.47321521	     13.48376302	     13.48376302	     17.57703842	     -2.01684730	     -0.33626218	     29.95202665	     -6.76674386	      1.53810357	     14.86713480	     14.86713480	      4.89511111	     -0.22486847	      2.76078233	     -7.99758673	      3.33270104	      2.39399295	     52.18127639	    -17.96490790	     -6.21983704	     76.04211342	     44.85613972	      0.00000000	      0.00000000	    -16.21647763	     -9.79583055	     22.88621865	     34.23637721	     42.68667995	      0.00000000	      0.00000000
      8.85128571	     -7.71300617	     -4.20351371	      9.26486717	      0.94908070	      0.91947786	      0.53245591	      5.29561332	      4.81475125	    -17.47310142	     13.28683008	     13.28683008	     17.79075867	     -1.88311815	     -0.37131141	     29.89756928	     -6.76469830	      1.35620978	     15.10519111	     15.10519111	      4.30490147	     -0.41408356	      2.16984640	     -7.90835284	      3.23759138	      2.44933430	     53.05193216	    -17.90899387	     -6.30025752	     76.65529799	     44.84833546	      0.00000000	      0.00000000	    -15.99434138	     -9.89644089	     22.92839024	     34.05076128	     42.71455281	      0.00000000	      0.00000000
      8.87035714	     -7.72460175	     -4.29525519	      9.24200555	      0.94941126	      0.91866055	      0.52982128	      4.78265219	      4.81952276	    -17.44782535	     13.12820518	     13.12820518	     18.02792461	     -1.73688213	     -0.39789518	     29.86495803	     -6.74233625	      1.25386045	     15.69433472	     15.69433472	      3.80095039	     -0.79767466	      1.57565449	     -7.82502307	      3.12071221	      2.48420650	     53.67392466	    -17.75641188	     -6.35718802	     77.17001952	     44.84010591	      0.00000000	      0.00000000	    -15.72961765	    -10.01953562	     22.94305544	     33.84031587	     42.73752370	      0.00000000	      0.00000000
      8.88942857	     -7.64697753	     -4.46857089	      9.21113099	      0.95009140	      0.91790043	      0.52697001	      4.19668913	      4.88766162	    -17.53562948	     13.04752158	     13.04752158	     18.31625989	     -1.36488090	     -0.30622104	     29.61275224	     -6.75197593	      1.59839972	     16.03473378	     16.03473378	      1.80648555	     -2.32495707	     -2.41781753	     -7.81606398	      3.11060810	      2.75833398	     53.60778348	    -17.80295008	     -6.94285467	     78.52582538	     44.85247850	      0.00000000	      0.00000000	    -14.87091734	     -9.91608587	     23.10490678	     32.31936422	     42.91033275	      0.00000000	      0.00000000
      8.90850000	     -7.52704250	     -4.50442554	      9.13527779	      0.95087776	      0.91739569	      0.52396063	      3.61350258	      4.79714245	    -17.41462054	     13.10554465	     13.10554465	     18.54183708	     -1.33802072	     -0.34691394	     29.58781975	     -6.69555596	      1.70592079	     17.14341735	     17.14341735	      1.65138024	     -3.09830362	     -2.57781051	     -7.87725421	      2.95920709	      2.79534518	     53.79294752	    -17.69432334	     -6.93648175	     78.59011168	     44.85430337	      0.00000000	      0.00000000	    -14.49137068	    -10.16380236	     23.05039771	     32.31222353	     42.93755817	      0.00000000	      0.00000000
